# xmcd CD database file
#
# Track frame offsets:
#	150
#	17347
#	32965
#
# Disc length: 668 seconds
#
# Revision: 0
# Processed by: cddbd v1.5.1PL2 Copyright (c) Steve Scherf et al.
# Submitted via: CD2WAV32(JP) R3.22
#
DISCID=18029a03
DTITLE=Mi-Ke - ブルーライト ヨコスカ
DYEAR=1991
DGENRE=J-POP(J)
TTITLE0=ブルーライト ヨコスカ
TTITLE1=あの日の I LOVE YOU
TTITLE2=ブルーライト ヨコスカ (オリジナルカラオケ)
EXTD=
EXTT0=
EXTT1=
EXTT2=
PLAYORDER=
